<svg width="122" height="43" viewBox="0 0 122 43" fill="none" xmlns="http://www.w3.org/2000/svg">
        <path fill-rule="evenodd" clip-rule="evenodd" d="M58.8451 14.478C46.8578 8.2466 37.9718 5.79229 28.9151 6.5006C21.2671 7.09873 13.1911 9.97419 2.73946 15.3379L0 9.99977C10.7202 4.49826 19.6308 1.20838 28.4473 0.518861C39.1382 -0.317244 49.2469 2.70153 61.8155 9.26C72.9296 3.2488 82.0271 0.979439 91.2651 1.46556C100.742 1.96428 110.094 5.36537 121.476 9.88021L119.264 15.4574C107.79 10.9061 99.3071 7.89706 90.9498 7.45727C83.1307 7.04582 75.1729 8.88419 64.8451 14.443V42.2597H58.8451V14.478ZM28.1553 30.4145L25.9802 32.8401L26.2017 39.0823L23.7656 39.1669L23.1103 20.6942L25.5463 20.6095L25.8704 29.7444L33.7552 20.3243L36.6987 20.222L29.7181 28.6326L37.925 38.6749L35.0069 38.7763L28.1553 30.4145ZM45.0645 38.6809C43.2037 38.7456 41.668 38.1892 40.4575 37.0118C39.2467 35.8259 38.605 34.2095 38.5324 32.1626L38.5171 31.7313C38.4688 30.3695 38.6837 29.1468 39.1619 28.0631C39.6482 26.9707 40.3459 26.108 41.255 25.4752C42.1723 24.8336 43.1765 24.4938 44.2677 24.4559C46.0524 24.3939 47.4604 24.9335 48.4918 26.0748C49.5231 27.2161 50.0777 28.8821 50.1554 31.0728L50.19 32.0497L40.89 32.3729C40.9718 33.725 41.404 34.8067 42.1865 35.6179C42.9772 36.4203 43.9562 36.8013 45.1234 36.7607C45.9524 36.7319 46.6484 36.5384 47.2116 36.1801C47.7747 35.8218 48.2621 35.356 48.6737 34.7827L50.147 35.8494C49.0594 37.6572 47.3652 38.601 45.0645 38.6809ZM44.3361 26.3844C43.3887 26.4173 42.606 26.7917 41.9877 27.5076C41.3692 28.2151 41.0058 29.1931 40.8977 30.4418L47.7744 30.2028L47.7681 30.0252C47.6581 28.8349 47.304 27.9242 46.7057 27.2929C46.1071 26.6531 45.3173 26.3503 44.3361 26.3844ZM83.1682 21.3036L79.7229 32.3915L76.0315 21.3036H73.2697L78.5471 35.9325L77.9865 37.4364C77.6766 38.357 77.2802 38.9904 76.7971 39.3368C76.3231 39.6831 75.6578 39.8563 74.801 39.8563L74.1174 39.8016V41.8524L75.0608 42.0301L75.5393 42.0711C77.5445 42.0711 79.0074 40.8407 79.9279 38.3797L85.8752 21.3036H83.1682ZM99.0959 34.3055C100.126 32.9292 100.641 31.1154 100.641 28.8641V28.6317C100.641 26.2437 100.121 24.3797 99.0822 23.0399C98.0523 21.7001 96.6487 21.0301 94.8713 21.0301C93.0393 21.0301 91.6083 21.6681 90.5783 22.9442L90.4553 21.3036H88.1447V41.784H90.674V34.661C91.704 35.8003 93.1168 36.37 94.9123 36.37C96.6714 36.37 98.066 35.6818 99.0959 34.3055ZM97.0451 24.6258C97.7561 25.592 98.1115 26.909 98.1115 28.577C98.1115 30.4728 97.7515 31.9038 97.0315 32.87C96.3205 33.827 95.3589 34.3055 94.1467 34.3055C92.5881 34.3055 91.4305 33.631 90.674 32.2821V25.2137C91.4397 23.8556 92.5881 23.1766 94.1194 23.1766C95.3589 23.1766 96.3342 23.6597 97.0451 24.6258ZM105.112 34.4012C106.369 35.7137 108.001 36.37 110.006 36.37C112.485 36.37 114.345 35.4175 115.584 33.5126L114.039 32.3094C113.574 32.911 113.032 33.3941 112.412 33.7586C111.793 34.1232 111.036 34.3055 110.143 34.3055C108.885 34.3055 107.846 33.8589 107.026 32.9657C106.214 32.0633 105.791 30.883 105.754 29.4247H115.776V28.3719C115.776 26.0112 115.242 24.1974 114.176 22.9305C113.11 21.6636 111.615 21.0301 109.692 21.0301C108.516 21.0301 107.422 21.3583 106.41 22.0145C105.408 22.6616 104.624 23.564 104.059 24.7215C103.503 25.87 103.225 27.1779 103.225 28.6454V29.1102C103.225 31.3159 103.854 33.0796 105.112 34.4012ZM107.121 24.2293C107.814 23.482 108.671 23.1083 109.692 23.1083C110.749 23.1083 111.587 23.4637 112.207 24.1747C112.827 24.8765 113.173 25.87 113.246 27.1551V27.3465H105.836C106 26.0067 106.429 24.9676 107.121 24.2293Z" fill="#802013"/>
    </svg>